<svg xmlns="http://www.w3.org/2000/svg">
  <symbol id="earth" viewBox="0 0 285.93 250">
    <title>Earth symbol</title>
    <path d="M276.94,0H9A9,9,0,0,0,1.22,13.46l134,232.06a9,9,0,0,0,15.54,0l134-232.06A9,9,0,0,0,276.94,0ZM107.18,137h89.5l-44.75,77.51ZM210.5,113H93.37L42.29,24.56H261.58Z" />
  </symbol>



  <!-- <symbol id="speaker" viewBox="0 0 48.683332 93.133329">
   <title >speaker</title>

    <path d="m268 243.52-90 89v11.338c0-1.9337-0.48353-3.7501-1.3301-5.3398a5.5 86 0 0 1 3.3301 79.002 5.5 86 0 0 1 -4.1562 83.311c1.3513-1.8667 2.1562-4.1575 2.1562-6.6484v11.338l90 90zm-172.66 89c-6.2816 0-11.338 5.0563-11.338 11.338v150.32c0 6.2816 5.0563 11.338 11.338 11.338h71.324c2.7492 0 5.264-0.96812 7.2227-2.584a5.5 86 0 0 1 -4.8848 -85.416 5.5 86 0 0 1 4.0742 -83.021c-1.8218-1.2475-4.0278-1.9785-6.4121-1.9785z"/>

 </symbol>

  <symbol id="calendar" viewBox="0 0 88.370834 100.27708" >

    <path  d="m150.56 328.52c-4.1877 0-7.5586 5.701-7.5586 12.783v76.434c0 7.0822 3.3709 12.783 7.5586 12.783h-10c-4.1877 0-7.5586-5.0563-7.5586-11.338v-45.662h-22.441c-4.1877 0-7.5586 5.0563-7.5586 11.338v311.32c0 6.2816 3.3709 11.338 7.5586 11.338h318.88c4.1877 0 7.5586-5.0563 7.5586-11.338v-311.32c0-6.2816-3.3709-11.338-7.5586-11.338h-20.441v45.662c0 6.2816-3.3709 11.338-7.5586 11.338h-12c4.1877 0 7.5586-5.701 7.5586-12.783v-76.434c0-7.0822-3.3709-12.783-7.5586-12.783h-14.883c-4.1877 0-7.5586 5.701-7.5586 12.783v76.434c0 7.0822 3.3709 12.783 7.5586 12.783h-9c-4.1877 0-7.5586-5.0563-7.5586-11.338v-45.662h-174v45.662c0 6.2816-3.3709 11.338-7.5586 11.338h-11c4.1877 0 7.5586-5.701 7.5586-12.783v-76.434c0-7.0822-3.3709-12.783-7.5586-12.783zm-35.559 160h309.35v191.5c0 5.818-3.1233 10.502-7.002 10.502h-295.35c-3.8786 0-7-4.684-7-10.502z" stroke-width="0"/>

  </symbol>

  <symbol id="sleep" viewBox="0 0 81.491661 56.356251" >

    <path d="m106.36 89.302a24.871 20.637 0 0 0 -24.806 19.554 20.108 16.801 0 0 0 -16.734 16.561 20.108 16.801 0 0 0 20.108 16.801 20.108 16.801 0 0 0 12.025 -3.3564 26.723 19.447 0 0 0 20.254 6.796 26.723 19.447 0 0 0 26.723 -19.447 26.723 19.447 0 0 0 -1.3467 -6.0193 22.093 13.229 0 0 0 3.7279 -7.3422 22.093 13.229 0 0 0 -18.304 -13.02 24.871 20.637 0 0 0 -21.648 -10.528zm2.0206 19.058h5.7878l-5.1418 7.3556h3.2127c0.2469 0 0.46221-0.0232 0.64595-0.0692 0.18374-0.0459 0.34738-0.12903 0.49093-0.2496 0.14354-0.12058 0.2697-0.28726 0.37879-0.49971 0.1091-0.21244 0.21548-0.48502 0.31884-0.81804l0.18914 0.0346-0.37001 2.0753h-6.3738v-0.21497l5.0214-7.1401h-2.4975c-0.31579 0-0.56863 0.0258-0.75809 0.0775-0.1895 0.0459-0.33895 0.12649-0.44804 0.24133-0.1091 0.11484-0.19218 0.26987-0.2496 0.46509-0.0517 0.18948-0.1003 0.42455-0.14624 0.7059h-0.22428zm-8.2021 4.2333h5.7878l-5.1418 7.3556h3.2127c0.2469 0 0.46222-0.0233 0.64596-0.0693 0.18374-0.0459 0.34738-0.12902 0.49092-0.2496 0.14354-0.12057 0.2697-0.28726 0.37879-0.49971 0.1091-0.21244 0.21548-0.48501 0.31885-0.81803l0.18913 0.0346-0.37 2.0753h-6.3738v-0.21497l5.0214-7.1401h-2.4975c-0.31579 0-0.56861 0.0258-0.75809 0.0775-0.18948 0.0459-0.33894 0.12649-0.44803 0.24133-0.1091 0.11484-0.19218 0.26987-0.2496 0.46509-0.0517 0.18948-0.1003 0.42455-0.14625 0.7059h-0.22427zm-7.1437 5.0271h5.7878l-5.1418 7.3556h3.2127c0.2469 0 0.46222-0.0233 0.64596-0.0692 0.18374-0.0459 0.34738-0.12902 0.49093-0.2496 0.14354-0.12058 0.26969-0.28727 0.37879-0.49971 0.1091-0.21245 0.21549-0.48502 0.31884-0.81804l0.18914 0.0346-0.37 2.0753h-6.3738v-0.21498l5.0214-7.1401h-2.4975c-0.3158 0-0.56861 0.0258-0.75809 0.0775-0.18948 0.0459-0.33894 0.12649-0.44804 0.24132-0.1091 0.11484-0.19218 0.26987-0.2496 0.46509-0.05168 0.18948-0.10031 0.42455-0.14625 0.7059h-0.22427z" />

  </symbol>

  <symbol id="ink_pen" viewBox="0 0 142.08058 138.27032" >

    <path d="m-72.793 88.046-16.423 28.396 29.747 29.747 28.414-16.405zm-25.498 37.271-18.416 18.416-35.018-4.1028 0.019 0.019-21.066 73.071 2.153 2.153c7e-3 -7e-3 0.0117-0.0147 0.019-0.0219l0.55542-0.55542 0.44215-0.44214c0.0498-0.0494 0.0982-0.10087 0.14981-0.1469l2.2684-2.2684 21.004-21.004 0.0296 0.034a14.155 12.011 45 0 1 2.0408 -13.146 14.155 12.011 45 0 1 18.502 1.5161l-3.7e-4 3.7e-4a14.155 12.011 45 0 1 1.5164 18.502 14.155 12.011 45 0 1 -13.412 1.9319l0.15822 0.0808-20.961 20.961-3.4348 3.4348 8e-3 8e-3 2.1954 2.1954 74.243-19.894 0.019 0.019-3.573-30.494 20.413-20.413zm-41.214 72.932a14.155 12.011 45 0 1 -0.0617 -0.0347l5e-3 5e-3zm-22.269 25.433c-2e-3 1e-3 -3e-3 3e-3 -4e-3 4e-3 -2e-3 6e-3 -4e-3 0.013-7e-3 0.0186l0.0438 0.0438z" />

  </symbol>

  <symbol id="gear" viewBox="0 0 90.147469 90.942772" >

    <path d="m338.42 463.63-8.375 31.256a144.5 144.5 0 0 0 -40.908 18.502l-37.193-14.57-35.35 47.959 21.041 26.354a144.5 144.5 0 0 0 -5.8594 14.682l-37.312 9.9961v59.58l33.336 8.9316a144.5 144.5 0 0 0 8.627 26.078l-20.832 26.09 35.35 47.961 35.301-13.83a144.5 144.5 0 0 0 42.984 20.428l9.1914 34.305h59.58l9.1816-34.26a144.5 144.5 0 0 0 44.043 -20.674l35.818 14.031 35.35-47.961-21.521-26.951a144.5 144.5 0 0 0 7.6152 -22.219l26.691-7.1504v-59.58l-27.645-7.4082a144.5 144.5 0 0 0 -4.7285 -14.115l22.588-28.287-35.35-47.959-34.957 13.693a144.5 144.5 0 0 0 -48.789 -23.922l-8.2969-30.959zm-61.5 68.162h11.365l1.582 5.9043a27.561 27.561 0 0 1 9.3047 4.5625l6.668-2.6113 6.7422 9.1465-4.3086 5.3965a27.561 27.561 0 0 1 0.90234 2.6914l5.2734 1.4141v11.363l-5.0918 1.3633a27.561 27.561 0 0 1 -1.4512 4.2383l4.1035 5.1406-6.7422 9.1484-6.832-2.6777a27.561 27.561 0 0 1 -8.4004 3.9434l-1.75 6.5352h-11.365l-1.752-6.543a27.561 27.561 0 0 1 -8.1992 -3.8965l-6.7324 2.6387-6.7422-9.1484 3.9727-4.9766a27.561 27.561 0 0 1 -1.6465 -4.9746l-6.3574-1.7031v-11.363l7.1172-1.9062a27.561 27.561 0 0 1 1.1172 -2.8008l-4.0137-5.0274 6.7422-9.1465 7.0938 2.7793a27.561 27.561 0 0 1 7.8027 -3.5293zm161 0h11.365l1.582 5.9043a27.561 27.561 0 0 1 9.3047 4.5625l6.668-2.6113 6.7422 9.1465-4.3086 5.3965a27.561 27.561 0 0 1 0.90234 2.6914l5.2734 1.4141v11.363l-5.0918 1.3633a27.561 27.561 0 0 1 -1.4512 4.2383l4.1035 5.1406-6.7422 9.1484-6.832-2.6777a27.561 27.561 0 0 1 -8.4004 3.9434l-1.75 6.5352h-11.365l-1.752-6.543a27.561 27.561 0 0 1 -8.1992 -3.8965l-6.7324 2.6387-6.7422-9.1484 3.9727-4.9766a27.561 27.561 0 0 1 -1.6465 -4.9746l-6.3574-1.7031v-11.363l7.1172-1.9062a27.561 27.561 0 0 1 1.1172 -2.8008l-4.0137-5.0274 6.7422-9.1465 7.0938 2.7793a27.561 27.561 0 0 1 7.8027 -3.5293zm-155.36 24.01a8.2016 8.2016 0 0 0 -8.2012 8.2012 8.2016 8.2016 0 0 0 8.2012 8.2031 8.2016 8.2016 0 0 0 8.2012 -8.2031 8.2016 8.2016 0 0 0 -8.2012 -8.2012zm161 0a8.2016 8.2016 0 0 0 -8.2012 8.2012 8.2016 8.2016 0 0 0 8.2012 8.2031 8.2016 8.2016 0 0 0 8.2012 -8.2031 8.2016 8.2016 0 0 0 -8.2012 -8.2012zm-75.562 33.715a43 43 0 0 1 43 43 43 43 0 0 1 -43 43 43 43 0 0 1 -43 -43 43 43 0 0 1 43 -43z" />

  </symbol>

  <symbol id="home" viewBox="0 0 159.85225 110.64493">

    <path d="m388.3 379.33-1.6738 0.9668c0.98708 1.7549 1.6738 5.7259 1.6738 10.373v151.51c0 6.2816-1.2522 11.338-2.8086 11.338s-2.8106-5.0563-2.8106-11.338v-151.51c0-3.5146 0.40137-6.607 1.0195-8.6836l-297.87 171.97 128.17-0.44531v232.66c0 6.2816 3.3709 11.338 7.5586 11.338h130c-4.1877 0-7.5586-5.0563-7.5586-11.338v-122.95c0-6.2816 3.3709-11.338 7.5586-11.338h74.883c4.1877 0 7.5586 5.0563 7.5586 11.338v122.95c0 6.2816-3.3709 11.338-7.5586 11.338h137c4.1877 0 7.5586-5.0563 7.5586-11.338v-232.66h119z"/>

  </symbol>

  <symbol id="mug" viewBox="0 0 87.04792 125.26677" >

    <path d="m386.4 92.57-13.709 5.5723c-0.6051 0.57627-1.19 1.1754-1.8164 1.7285-5.1618 4.5582 0.27848-0.56493-5.2285 4.4844-2.7692 2.5391-5.3937 5.2163-7.9707 7.9473-3.536 3.814-7.0218 7.7911-9.1894 12.557-1.109 2.8434-1.7321 5.8616-1.4902 8.9121 0.297 3.675 3.1288 6.2241 5.3281 8.9219 3.634 4.6048 8.0054 8.5616 12.158 12.688 3.1873 2.97 5.9816 6.2932 8.7129 9.6719 1.8625 2.304 3.7002 4.6299 5.5957 6.9024 0.76812 0.89506 1.4952 1.8156 2.1856 2.7578 0.34491 0.47075 0.67949 0.94762 1.0059 1.4297 0.32686 0.48279 0.64428 0.97101 0.95312 1.4648 1.2609 2.0161 2.3763 4.1216 3.3613 6.3086 1.085 2.4338 1.5049 4.2667 1.2539 6.8906-0.15617 1.2853-0.99291 2.2214-1.625 3.2969-1.0464 1.7804-2.1133 3.2427-3.4902 4.7949-3.364 3.9252-7.0862 7.4974-11.105 10.742-3.2504 2.7465-6.8113 5.0788-10.156 7.7012-1.3553 1.1399-3.0116 1.8503-4.4316 2.8867-1.1365 0.96786-0.56281 0.5215-1.7188 1.3476-0.58318 0.72531-1.3054 1.1905-2.1152 1.6113l13.852-5.4043c0.69181-0.55272 1.3416-1.1498 2.0547-1.6758 1.9647-1.4859 4.1323-2.6788 6.0508-4.2324 3.3374-2.537 6.7678-4.9553 9.9648-7.6738 3.9956-3.36 7.7126-7.0323 11.086-11.021 2.1237-2.6441 4.3954-5.5587 4.8848-9.0059 0.10287-2.1301-0.30756-4.1425-1.0723-6.0918a152 45 0 0 1 55.121 5.8477c-0.85186-1.7084-1.7937-3.3617-2.8262-4.959 1.0334 1.5964 1.9743 3.2505 2.8262 4.959 0.32687 0.65555 0.64506 1.3154 0.94726 1.9863 1.085 2.4338 1.5049 4.2667 1.2539 6.8906-0.15617 1.2853-0.99291 2.2214-1.625 3.2969-1.0464 1.7804-2.1133 3.2427-3.4902 4.7949-3.364 3.9252-7.0862 7.4974-11.105 10.742-3.2504 2.7465-6.8113 5.0788-10.156 7.7012-1.3553 1.1399-3.0116 1.8503-4.4316 2.8867-1.1365 0.96786-0.56281 0.5215-1.7188 1.3476-0.58318 0.72531-1.3054 1.1905-2.1152 1.6113l13.852-5.4043c0.69181-0.55272 1.3416-1.1498 2.0547-1.6758 1.9647-1.4859 4.1342-2.6788 6.0527-4.2324 3.3374-2.537 6.7659-4.9553 9.9629-7.6738 3.9956-3.36 7.7126-7.0323 11.086-11.021 1.9462-2.4231 3.9998-5.079 4.709-8.1582a152 45 0 0 1 58.877 35.498 152 45 0 0 1 -152 45 152 45 0 0 1 -152 -45 152 45 0 0 1 89.586 -40.969c0.79908 1.4163 1.5358 2.8707 2.209 4.3652 1.085 2.4338 1.5049 4.2667 1.2539 6.8906-0.15617 1.2853-0.99291 2.2214-1.625 3.2969-1.0464 1.7804-2.1133 3.2427-3.4902 4.7949-3.364 3.9252-7.0862 7.4974-11.105 10.742-3.2504 2.7465-6.8113 5.0788-10.156 7.7012-1.3553 1.1399-3.0116 1.8503-4.4316 2.8867-1.1365 0.96786-0.56281 0.5215-1.7188 1.3476-0.58318 0.72531-1.3054 1.1905-2.1152 1.6113l13.852-5.4043c0.69181-0.55272 1.3416-1.1498 2.0547-1.6758 1.9647-1.4859 4.1323-2.6788 6.0508-4.2324 3.3374-2.537 6.7678-4.9553 9.9648-7.6738 3.9956-3.36 7.7126-7.0323 11.086-11.021 2.1237-2.6441 4.3954-5.5587 4.8848-9.0059 0.1083-2.2424-0.34863-4.3553-1.1934-6.4004a152 45 0 0 1 46.895 -2.2539 152 45 0 0 1 5.9336 0.0879c-0.30861-0.49347-0.62672-0.98226-0.95312-1.4648s-0.66096-0.9584-1.0059-1.4297c-0.6898-0.94259-1.4174-1.8628-2.1856-2.7578-1.8955-2.2724-3.7332-4.5983-5.5957-6.9024-3.1599 0.0294-6.3176 0.0756-9.4668 0.16211a12.501 12.501 0 0 0 -0.01 2e-3c-2.5971 0.0734-5.1871 0.16532-7.7695 0.27734-2.5418 0.0953-5.0755 0.20944-7.5996 0.3418a12.501 12.501 0 0 0 -0.0781 4e-3c-2.5454 0.14952-5.0787 0.31877-7.5976 0.50586-0.0151 1e-3 -0.0299 3e-3 -0.0449 4e-3 -0.0125 9.1e-4 -0.025 1e-3 -0.0371 2e-3 -2.4658 0.16751-4.918 0.35169-7.3555 0.55469a12.501 12.501 0 0 0 -0.084 8e-3c-2.4888 0.22424-4.9593 0.46743-7.4102 0.72852-0.95654 0.0955-1.8954 0.20578-2.8457 0.30664-0.39205-0.48858-0.79272-0.97183-1.2031-1.4492-4.7612-5.588-9.0773-11.574-14.406-16.656-4.0567-4.1262-8.3063-8.1123-11.895-12.66-1.9636-2.5084-4.5988-4.8233-4.7383-8.2109-0.0852-2.822 0.55812-5.6007 1.6973-8.1797 2.3406-4.5007 5.696-8.3531 9.1426-12.045 4.8471-5.0431 10.031-9.704 15.406-14.178l-13.709 5.5723c-0.6051 0.57627-1.19 1.1754-1.8164 1.7285-5.1618 4.5582 0.27848-0.56493-5.2285 4.4844-2.7692 2.5391-5.3937 5.2163-7.9707 7.9473-3.536 3.814-7.0218 7.7911-9.1894 12.557-1.109 2.8434-1.7321 5.8616-1.4902 8.9121 0.297 3.675 3.1288 6.2241 5.3281 8.9219 3.634 4.6048 8.0054 8.5616 12.158 12.688 4.1486 3.8658 7.6474 8.3151 11.184 12.729-0.61541 0.0905-1.2437 0.17273-1.8555 0.26562a12.501 12.501 0 0 0 -0.0976 0.0137c-2.3477 0.37542-4.663 0.77024-6.9492 1.1816-2.1928 0.37705-4.3574 0.76862-6.4922 1.1777a12.501 12.501 0 0 0 -0.10156 0.0215c-2.1839 0.43748-4.332 0.89224-6.4473 1.3633-0.0178 4e-3 -0.0348 8e-3 -0.0527 0.0117-0.0178 4e-3 -0.0367 8e-3 -0.0547 0.0117-2.0814 0.44589-4.1324 0.90552-6.1465 1.3828a12.501 12.501 0 0 0 -0.11719 0.0293c-1.9933 0.49265-3.9471 0.99973-5.8672 1.5234-0.0261 7e-3 -0.0502 0.0147-0.0762 0.0215-0.0151 4e-3 -0.0318 8e-3 -0.0469 0.0117-1.9592 0.51507-3.8827 1.0455-5.7656 1.5918a12.501 12.501 0 0 0 -0.13477 0.041c-1.8642 0.56345-3.6863 1.1433-5.4688 1.7383-8e-3 3e-3 -0.0171 5e-3 -0.0254 8e-3 -1.7848 0.57323-3.5342 1.1599-5.2383 1.7637a12.501 12.501 0 0 0 -0.16211 0.0605c-1.7156 0.63498-3.3869 1.287-5.0137 1.9551-0.0129 5e-3 -0.0265 0.0107-0.0391 0.0156-1.5708 0.61946-3.1053 1.2526-4.5957 1.9023a12.501 12.501 0 0 0 -0.19727 0.0879c-1.5181 0.69321-2.9895 1.4039-4.418 2.1328-1.4292 0.6993-2.8172 1.4152-4.1602 2.1504a12.501 12.501 0 0 0 -0.23437 0.13085c-1.3134 0.75614-2.5776 1.5355-3.8027 2.334-1.2366 0.76966-2.4373 1.5567-3.5879 2.3711a12.501 12.501 0 0 0 -0.29101 0.21289c-1.1127 0.83692-2.1755 1.7025-3.1992 2.5957-1.0425 0.86431-2.0473 1.7535-3 2.6797a12.501 12.501 0 0 0 -0.33398 0.3379c-0.8979 0.9419-1.7378 1.9274-2.5371 2.9453-0.82988 0.99401-1.6204 2.0163-2.3418 3.0938a12.501 12.501 0 0 0 -0.34375 0.54297c-0.65337 1.0936-1.2253 2.2455-1.7441 3.4258-0.55504 1.1535-1.0612 2.3374-1.4629 3.5723a12.501 12.501 0 0 0 -0.0391 0.12305c-0.73133 2.3292-1.1578 4.7926-1.2188 7.2754a12.501 12.501 0 0 0 -4e-3 0.31055c3.4e-4 1.0831 0.24771 2.136 0.38281 3.207v279.6a12.501 12.501 0 0 0 0.0156 0.29883c-0.10666 0.76331-0.34454 1.4969-0.38282 2.2695a12.501 12.501 0 0 0 -0.0156 0.61914c0 11.918 7.8331 21.145 17.277 27.756 9.4443 6.6105 21.61 11.732 36.193 16.049 29.166 8.6347 68.056 13.695 111.03 13.695a12.501 12.501 0 0 0 4e-3 0c40.808-0.0113 78.124-4.6146 106.83-12.539 14.352-3.9623 26.557-8.7032 36.299-14.643 8.9-5.4261 16.402-12.08 19.635-21.502a12.501 12.501 0 0 0 1.3516 -5.627v-0.13281c0.10998-0.67219 0.28277-1.3303 0.33984-2.0117a12.501 12.501 0 0 0 0.043 -1.0488c-3.4e-4 -1.0831-0.24758-2.136-0.38281-3.207v-279.6a12.501 12.501 0 0 0 -0.0156 -0.30078c0.10696-0.76591 0.34468-1.5021 0.38282-2.2773a12.501 12.501 0 0 0 0.0117 -0.91797c-0.0608-2.4828-0.48741-4.9462-1.2188-7.2754a12.501 12.501 0 0 0 -0.0391 -0.12305c-0.40172-1.2348-0.90787-2.4187-1.4629-3.5723-0.51885-1.1803-1.0908-2.3322-1.7441-3.4258a12.501 12.501 0 0 0 -0.34375 -0.54297c-0.72136-1.0774-1.5119-2.0997-2.3418-3.0938-0.79925-1.0179-1.6392-2.0034-2.5371-2.9453a12.501 12.501 0 0 0 -0.33398 -0.3379c-0.95274-0.92616-1.9575-1.8154-3-2.6797-1.0237-0.89321-2.0865-1.7588-3.1992-2.5957a12.501 12.501 0 0 0 -0.29101 -0.21289c-1.1584-0.81992-2.3658-1.6141-3.6113-2.3887-1.2159-0.79191-2.4706-1.5623-3.7734-2.3125a12.501 12.501 0 0 0 -0.24023 -0.13476c-1.356-0.74174-2.7594-1.4627-4.2031-2.168-1.4061-0.71711-2.8529-1.417-4.3457-2.0996a12.501 12.501 0 0 0 -0.19336 -0.0879c-1.5429-0.67393-3.1326-1.3292-4.7617-1.9707-1.5982-0.6549-3.2363-1.295-4.9199-1.918a12.501 12.501 0 0 0 -0.16407 -0.0605c-1.6995-0.60214-3.4428-1.188-5.2226-1.7598l-0.0606-0.0195c-1.7794-0.59384-3.598-1.1719-5.459-1.7344a12.501 12.501 0 0 0 -0.13672 -0.041c-1.8717-0.54265-3.7835-1.0702-5.7305-1.582l-0.0469-0.0117c-1.952-0.53313-3.9409-1.0498-5.9688-1.5508a12.501 12.501 0 0 0 -0.11523 -0.0273c-2.0217-0.47927-4.0784-0.94302-6.168-1.3906-1.3815-0.30807-2.802-0.59696-4.2129-0.89062-1.4727-2.3667-3.1203-4.621-4.959-6.7598-4.7612-5.588-9.0773-11.574-14.406-16.656-4.0567-4.1262-8.3063-8.1123-11.895-12.66-1.9636-2.5084-4.5988-4.8233-4.7383-8.2109-0.0852-2.822 0.55812-5.6007 1.6973-8.1797 2.3406-4.5007 5.696-8.3531 9.1426-12.045 4.8471-5.0431 10.031-9.704 15.406-14.178l-13.709 5.5723c-0.6051 0.57627-1.19 1.1754-1.8164 1.7285-5.1618 4.5582 0.27848-0.56493-5.2285 4.4844-2.7692 2.5391-5.3937 5.2163-7.9707 7.9473-3.536 3.814-7.0218 7.7911-9.1894 12.557-1.109 2.8434-1.7321 5.8616-1.4902 8.9121 0.297 3.675 3.1307 6.2241 5.3301 8.9219 3.634 4.6048 8.0035 8.5616 12.156 12.688 4.0125 3.7389 7.4137 8.0266 10.832 12.297-0.7095-0.099-1.4052-0.20692-2.1191-0.30273-2.3275-0.32878-4.6795-0.64167-7.0547-0.93555a12.501 12.501 0 0 0 -0.0898 -0.01c-2.4095-0.28059-4.8389-0.54259-7.2891-0.78711-2.4509-0.26109-4.9214-0.50428-7.4102-0.72852a12.501 12.501 0 0 0 -0.084 -8e-3c-2.4497-0.20402-4.9142-0.38847-7.3926-0.55664-2.5338-0.18841-5.0821-0.35935-7.6426-0.50977a12.501 12.501 0 0 0 -0.0781 -4e-3c-2.5241-0.1324-5.0578-0.24648-7.5996-0.3418-2.0676-0.0897-4.1436-0.15792-6.2207-0.22266-0.21327-0.25729-0.42215-0.51735-0.64062-0.77148-4.7612-5.588-9.0773-11.574-14.406-16.656-4.0567-4.1262-8.3063-8.1123-11.895-12.66-1.9636-2.5084-4.5988-4.8233-4.7383-8.2109-0.0852-2.822 0.55812-5.6007 1.6973-8.1797 2.3406-4.5007 5.696-8.3531 9.1426-12.045 4.8471-5.0431 10.031-9.704 15.406-14.178zm7.4746 75.318c0.0389 0.0531 0.0766 0.10698 0.11523 0.16016-0.0387-0.0533-0.0764-0.10703-0.11523-0.16016zm-69.229 2.375c0.0802 0.11163 0.16283 0.22181 0.24219 0.33399-0.0794-0.11226-0.1619-0.22229-0.24219-0.33399zm71.145 0.41797c0.0546 0.0851 0.10606 0.1724 0.16016 0.25781-0.054-0.0855-0.10566-0.17263-0.16016-0.25781zm0.88867 1.4375c0.10482 0.1753 0.20573 0.35274 0.3086 0.5293-0.10266-0.17652-0.204-0.35403-0.3086-0.5293zm-70.244 0.79492c0.0818 0.12929 0.16341 0.25868 0.24414 0.38867-0.0807-0.12992-0.16236-0.25944-0.24414-0.38867zm71.061 0.61719c0.17486 0.31357 0.34286 0.63173 0.51172 0.94922-0.16874-0.31767-0.33703-0.63545-0.51172-0.94922zm-88.205 0.42383c0.46593 0.54293 0.91262 1.0977 1.3496 1.6582-0.43666-0.56067-0.8837-1.1153-1.3496-1.6582zm89.049 1.1484c0.26609 0.51638 0.52493 1.0377 0.77539 1.5644-0.25045-0.52672-0.5095-1.048-0.77539-1.5644zm50.996 0.11914c0.1353 0.1697 0.2658 0.34235 0.39844 0.51367-0.13268-0.1715-0.26309-0.3438-0.39844-0.51367zm-121.25 0.47851c0.0682 0.12355 0.13387 0.2489 0.20117 0.37305-0.0673-0.1242-0.13293-0.24945-0.20117-0.37305zm139.07 0.13867c0.0371 0.0673 0.0726 0.13564 0.10937 0.20313-0.0367-0.0676-0.0724-0.13573-0.10937-0.20313zm-156.2 0.20118c0.34537 0.45381 0.68037 0.91418 1.0078 1.3789-0.32715-0.46504-0.66269-0.92483-1.0078-1.3789zm139.29 0.38671c0.52486 0.70494 1.0268 1.4238 1.5098 2.1543-0.48245-0.73086-0.98529-1.4491-1.5098-2.1543zm-138.03 1.3613c0.83886 1.2151 1.6204 2.4652 2.3457 3.75-0.72528-1.2847-1.5078-2.5343-2.3457-3.75z" color="#000000" color-rendering="auto" dominant-baseline="auto" image-rendering="auto" shape-rendering="auto" solid-color="#000000" style="font-feature-settings:normal;font-variant-alternates:normal;font-variant-caps:normal;font-variant-ligatures:normal;font-variant-numeric:normal;font-variant-position:normal;isolation:auto;mix-blend-mode:normal;shape-padding:0;text-decoration-color:#000000;text-decoration-line:none;text-decoration-style:solid;text-indent:0;text-orientation:mixed;text-transform:none;white-space:normal"/>

  </symbol> -->


 <!--  -->

 <!-- <symbol

    id="inkpen1">

     <path

        d="m -72.793013,88.046044 -16.422512,28.396186 29.747098,29.7471 28.413726,-16.40497 z m -25.497776,37.271206 -18.415811,18.41581 -35.01774,-4.1028 0.019,0.019 -21.06575,73.07055 2.15298,2.15298 c 0.007,-0.007 0.0117,-0.0147 0.019,-0.0219 l 0.55542,-0.55542 0.44215,-0.44214 c 0.0498,-0.0494 0.0982,-0.10087 0.14981,-0.1469 l 2.26845,-2.26845 21.00363,-21.00362 0.0296,0.034 a 14.155205,12.01093 45 0 1 2.0408,-13.14554 14.155205,12.01093 45 0 1 18.50241,1.51608 l -3.7e-4,3.7e-4 a 14.155205,12.01093 45 0 1 1.51645,18.50204 14.155205,12.01093 45 0 1 -13.41229,1.93191 l 0.15822,0.0808 -20.96123,20.96123 -3.43484,3.43484 0.008,0.008 2.19537,2.19537 74.242777,-19.89351 0.019,0.019 -3.572954,-30.49399 20.412762,-20.41277 z m -41.214321,72.93169 a 14.155205,12.01093 45 0 1 -0.0617,-0.0347 l 0.005,0.005 z m -22.26939,25.4331 c -0.002,0.001 -0.003,0.003 -0.004,0.004 -0.002,0.006 -0.004,0.013 -0.007,0.0186 l 0.0438,0.0438 z"
        />

 </symbol> -->
 <symbol
    xmlns:dc="http://purl.org/dc/elements/1.1/"
    xmlns:cc="http://creativecommons.org/ns#"
    xmlns:rdf="http://www.w3.org/1999/02/22-rdf-syntax-ns#"
    xmlns:svg="http://www.w3.org/2000/svg"
    xmlns="http://www.w3.org/2000/svg"
    id="inkpenn"
    version="1.1"
    viewBox="0 0 142.08058 138.27032"
   >
   <defs
      id="defs974" />
   <metadata
      id="metadata977">
     <rdf:RDF>
       <cc:Work
          rdf:about="">
         <dc:format>image/svg+xml</dc:format>
         <dc:type
            rdf:resource="http://purl.org/dc/dcmitype/StillImage" />
         <dc:title></dc:title>
       </cc:Work>
     </rdf:RDF>
   </metadata>
   <g
      transform="translate(172.91983,-87.830683)"
      id="layer1">
     <path
        id="path1712"
        d="m -72.793013,88.046044 -16.422512,28.396186 29.747098,29.7471 28.413726,-16.40497 z m -25.497776,37.271206 -18.415811,18.41581 -35.01774,-4.1028 0.019,0.019 -21.06575,73.07055 2.15298,2.15298 c 0.007,-0.007 0.0117,-0.0147 0.019,-0.0219 l 0.55542,-0.55542 0.44215,-0.44214 c 0.0498,-0.0494 0.0982,-0.10087 0.14981,-0.1469 l 2.26845,-2.26845 21.00363,-21.00362 0.0296,0.034 a 14.155205,12.01093 45 0 1 2.0408,-13.14554 14.155205,12.01093 45 0 1 18.50241,1.51608 l -3.7e-4,3.7e-4 a 14.155205,12.01093 45 0 1 1.51645,18.50204 14.155205,12.01093 45 0 1 -13.41229,1.93191 l 0.15822,0.0808 -20.96123,20.96123 -3.43484,3.43484 0.008,0.008 2.19537,2.19537 74.242777,-19.89351 0.019,0.019 -3.572954,-30.49399 20.412762,-20.41277 z m -41.214321,72.93169 a 14.155205,12.01093 45 0 1 -0.0617,-0.0347 l 0.005,0.005 z m -22.26939,25.4331 c -0.002,0.001 -0.003,0.003 -0.004,0.004 -0.002,0.006 -0.004,0.013 -0.007,0.0186 l 0.0438,0.0438 z"
        style="opacity:1;fill:#241f1c;fill-opacity:1;stroke:#000000;stroke-width:0.26458332px;stroke-linecap:butt;stroke-linejoin:miter;stroke-opacity:1" />
   </g>
 </symbol>

 <symbol
    xmlns:dc="http://purl.org/dc/elements/1.1/"
    xmlns:cc="http://creativecommons.org/ns#"
    xmlns:rdf="http://www.w3.org/1999/02/22-rdf-syntax-ns#"
    xmlns:svg="http://www.w3.org/2000/svg"
    xmlns="http://www.w3.org/2000/svg"
    id="home"
    viewBox="0 0 159.84649 110.64177"
    version="1.1"
    >
   <defs
      id="defs3696" />
   <metadata
      id="metadata3686">
     <rdf:RDF>
       <cc:Work
          rdf:about="">
         <dc:format>image/svg+xml</dc:format>
         <dc:type
            rdf:resource="http://purl.org/dc/dcmitype/StillImage" />
         <dc:title></dc:title>
       </cc:Work>
     </rdf:RDF>
   </metadata>
   <g
      id="g3690"
      transform="translate(-22.711413,-100.36313)">
     <path

        id="path3688"
        d="m 388.3,379.33 -1.6738,0.9668 c 0.98708,1.7549 1.6738,5.7259 1.6738,10.373 v 151.51 c 0,6.2816 -1.2522,11.338 -2.8086,11.338 -1.5564,0 -2.8106,-5.0563 -2.8106,-11.338 v -151.51 c 0,-3.5146 0.40137,-6.607 1.0195,-8.6836 l -297.87,171.97 128.17,-0.44531 v 232.66 c 0,6.2816 3.3709,11.338 7.5586,11.338 h 130 c -4.1877,0 -7.5586,-5.0563 -7.5586,-11.338 v -122.95 c 0,-6.2816 3.3709,-11.338 7.5586,-11.338 h 74.883 c 4.1877,0 7.5586,5.0563 7.5586,11.338 v 122.95 c 0,6.2816 -3.3709,11.338 -7.5586,11.338 h 137 c 4.1877,0 7.5586,-5.0563 7.5586,-11.338 v -232.66 h 119 z"
        transform="scale(0.26458)" />
   </g>
 </symbol>


 <symbol
    xmlns:dc="http://purl.org/dc/elements/1.1/"
    xmlns:cc="http://creativecommons.org/ns#"
    xmlns:rdf="http://www.w3.org/1999/02/22-rdf-syntax-ns#"
    xmlns:svg="http://www.w3.org/2000/svg"
    xmlns="http://www.w3.org/2000/svg"
    id="gear"
    viewBox="0 0 90.146424 90.941452"
    version="1.1"
   >
   <defs
      id="defs4513" />
   <metadata
      id="metadata4503">
     <rdf:RDF>
       <cc:Work
          rdf:about="">
         <dc:format>image/svg+xml</dc:format>
         <dc:type
            rdf:resource="http://purl.org/dc/dcmitype/StillImage" />
         <dc:title></dc:title>
       </cc:Work>
     </rdf:RDF>
   </metadata>
   <g
      id="g4507"
      transform="translate(-51.451179,-122.66758)">
     <path

        id="path4505"
        d="m 338.42,463.63 -8.375,31.256 a 144.5,144.5 0 0 0 -40.908,18.502 l -37.193,-14.57 -35.35,47.959 21.041,26.354 a 144.5,144.5 0 0 0 -5.8594,14.682 l -37.312,9.9961 v 59.58 l 33.336,8.9316 a 144.5,144.5 0 0 0 8.627,26.078 l -20.832,26.09 35.35,47.961 35.301,-13.83 a 144.5,144.5 0 0 0 42.984,20.428 l 9.1914,34.305 h 59.58 l 9.1816,-34.26 a 144.5,144.5 0 0 0 44.043,-20.674 l 35.818,14.031 35.35,-47.961 -21.521,-26.951 a 144.5,144.5 0 0 0 7.6152,-22.219 l 26.691,-7.1504 v -59.58 l -27.645,-7.4082 a 144.5,144.5 0 0 0 -4.7285,-14.115 l 22.588,-28.287 -35.35,-47.959 -34.957,13.693 a 144.5,144.5 0 0 0 -48.789,-23.922 l -8.2969,-30.959 z m -61.5,68.162 h 11.365 l 1.582,5.9043 a 27.561,27.561 0 0 1 9.3047,4.5625 l 6.668,-2.6113 6.7422,9.1465 -4.3086,5.3965 a 27.561,27.561 0 0 1 0.90234,2.6914 l 5.2734,1.4141 v 11.363 l -5.0918,1.3633 a 27.561,27.561 0 0 1 -1.4512,4.2383 l 4.1035,5.1406 -6.7422,9.1484 -6.832,-2.6777 a 27.561,27.561 0 0 1 -8.4004,3.9434 l -1.75,6.5352 h -11.365 l -1.752,-6.543 a 27.561,27.561 0 0 1 -8.1992,-3.8965 l -6.7324,2.6387 -6.7422,-9.1484 3.9727,-4.9766 a 27.561,27.561 0 0 1 -1.6465,-4.9746 l -6.3574,-1.7031 v -11.363 l 7.1172,-1.9062 a 27.561,27.561 0 0 1 1.1172,-2.8008 l -4.0137,-5.0274 6.7422,-9.1465 7.0938,2.7793 a 27.561,27.561 0 0 1 7.8027,-3.5293 z m 161,0 h 11.365 l 1.582,5.9043 a 27.561,27.561 0 0 1 9.3047,4.5625 l 6.668,-2.6113 6.7422,9.1465 -4.3086,5.3965 a 27.561,27.561 0 0 1 0.90234,2.6914 l 5.2734,1.4141 v 11.363 l -5.0918,1.3633 a 27.561,27.561 0 0 1 -1.4512,4.2383 l 4.1035,5.1406 -6.7422,9.1484 -6.832,-2.6777 a 27.561,27.561 0 0 1 -8.4004,3.9434 l -1.75,6.5352 h -11.365 l -1.752,-6.543 a 27.561,27.561 0 0 1 -8.1992,-3.8965 l -6.7324,2.6387 -6.7422,-9.1484 3.9727,-4.9766 a 27.561,27.561 0 0 1 -1.6465,-4.9746 l -6.3574,-1.7031 v -11.363 l 7.1172,-1.9062 a 27.561,27.561 0 0 1 1.1172,-2.8008 l -4.0137,-5.0274 6.7422,-9.1465 7.0938,2.7793 a 27.561,27.561 0 0 1 7.8027,-3.5293 z m -155.36,24.01 a 8.2016,8.2016 0 0 0 -8.2012,8.2012 8.2016,8.2016 0 0 0 8.2012,8.2031 8.2016,8.2016 0 0 0 8.2012,-8.2031 8.2016,8.2016 0 0 0 -8.2012,-8.2012 z m 161,0 a 8.2016,8.2016 0 0 0 -8.2012,8.2012 8.2016,8.2016 0 0 0 8.2012,8.2031 8.2016,8.2016 0 0 0 8.2012,-8.2031 8.2016,8.2016 0 0 0 -8.2012,-8.2012 z m -75.562,33.715 a 43,43 0 0 1 43,43 43,43 0 0 1 -43,43 43,43 0 0 1 -43,-43 43,43 0 0 1 43,-43 z"
        transform="scale(0.26458)" />
   </g>
 </symbol>


 <symbol
    xmlns:dc="http://purl.org/dc/elements/1.1/"
    xmlns:cc="http://creativecommons.org/ns#"
    xmlns:rdf="http://www.w3.org/1999/02/22-rdf-syntax-ns#"
    xmlns:svg="http://www.w3.org/2000/svg"
    xmlns="http://www.w3.org/2000/svg"
    id="mug"
    version="1.1"
    viewBox="0 0 87.04792 125.26677"
   >
   <defs
      id="defs2" />
   <metadata
      id="metadata5">
     <rdf:RDF>
       <cc:Work
          rdf:about="">
         <dc:format>image/svg+xml</dc:format>
         <dc:type
            rdf:resource="http://purl.org/dc/dcmitype/StillImage" />
         <dc:title></dc:title>
       </cc:Work>
     </rdf:RDF>
   </metadata>
   <g
      transform="translate(-56.223958,-24.492561)"
      id="layer1">
     <path
        id="path4625"
        transform="scale(0.26458333)"
        d="m 386.39844,92.570312 -13.70899,5.572266 c -0.6051,0.576268 -1.19002,1.175408 -1.8164,1.728516 -5.16182,4.558156 0.27848,-0.564931 -5.22852,4.484376 -2.76922,2.53906 -5.39367,5.21629 -7.9707,7.94726 -3.53605,3.81401 -7.02183,7.7911 -9.18945,12.55665 -1.10903,2.84336 -1.73213,5.86165 -1.49024,8.9121 0.297,3.67498 3.12878,6.22411 5.32813,8.92188 3.63401,4.60479 8.00541,8.56155 12.1582,12.6875 3.1873,2.96996 5.98162,6.29321 8.71289,9.67187 1.86253,2.30401 3.70018,4.6299 5.5957,6.90235 0.76812,0.89506 1.49517,1.81556 2.18555,2.75781 0.34491,0.47075 0.67949,0.94762 1.00586,1.42969 0.32686,0.48279 0.64428,0.97101 0.95312,1.46484 1.2609,2.01614 2.37629,4.12157 3.36133,6.3086 1.08495,2.43378 1.50487,4.26673 1.25391,6.89062 -0.15617,1.28532 -0.99291,2.22143 -1.625,3.29688 -1.04636,1.78035 -2.11332,3.24274 -3.49024,4.79492 -3.36396,3.92515 -7.0862,7.4974 -11.10547,10.74218 -3.25045,2.74652 -6.81134,5.07876 -10.15624,7.70118 -1.35531,1.13986 -3.01164,1.85027 -4.43165,2.88672 -1.13654,0.96786 -0.56281,0.5215 -1.71875,1.34765 -0.58318,0.72531 -1.30539,1.1905 -2.11523,1.61133 l 13.85156,-5.4043 c 0.69181,-0.55272 1.34164,-1.14977 2.05469,-1.67578 1.96467,-1.48587 4.13226,-2.67878 6.05078,-4.23242 3.33736,-2.53699 6.76783,-4.9553 9.96484,-7.67383 3.99565,-3.36 7.71256,-7.03229 11.08594,-11.02148 2.12368,-2.64408 4.39536,-5.55868 4.88477,-9.00586 0.10287,-2.1301 -0.30756,-4.14246 -1.07227,-6.0918 a 152,44.999998 0 0 1 55.1211,5.84766 c -0.85186,-1.70841 -1.79374,-3.36174 -2.82618,-4.95899 1.03341,1.59643 1.9743,3.25054 2.82618,4.95899 0.32687,0.65555 0.64506,1.31538 0.94726,1.98633 1.08495,2.43378 1.50487,4.26673 1.25391,6.89062 -0.15617,1.28532 -0.99291,2.22143 -1.625,3.29688 -1.04636,1.78035 -2.11332,3.24274 -3.49024,4.79492 -3.36396,3.92515 -7.0862,7.4974 -11.10547,10.74218 -3.25045,2.74652 -6.81134,5.07876 -10.15624,7.70118 -1.35531,1.13986 -3.01164,1.85027 -4.43165,2.88672 -1.13654,0.96786 -0.56281,0.5215 -1.71875,1.34765 -0.58318,0.72531 -1.30539,1.1905 -2.11523,1.61133 l 13.85156,-5.4043 c 0.69181,-0.55272 1.34164,-1.14977 2.05469,-1.67578 1.96467,-1.48587 4.13421,-2.67878 6.05273,-4.23242 3.33737,-2.53699 6.76588,-4.9553 9.96289,-7.67383 3.99565,-3.36 7.71256,-7.03229 11.08594,-11.02148 1.94619,-2.42309 3.99982,-5.07905 4.70899,-8.15821 A 152,44.999998 0 0 1 529,222.51953 a 152,44.999998 0 0 1 -152,45 152,44.999998 0 0 1 -152,-45 152,44.999998 0 0 1 89.58594,-40.96875 c 0.79908,1.41634 1.53582,2.87066 2.20898,4.36524 1.08495,2.43378 1.50487,4.26673 1.25391,6.89062 -0.15617,1.28532 -0.99291,2.22143 -1.625,3.29688 -1.04636,1.78035 -2.11332,3.24274 -3.49024,4.79492 -3.36396,3.92515 -7.0862,7.4974 -11.10547,10.74218 -3.25045,2.74652 -6.81134,5.07876 -10.15624,7.70118 -1.35531,1.13986 -3.01164,1.85027 -4.43165,2.88672 -1.13654,0.96786 -0.56281,0.5215 -1.71875,1.34765 -0.58318,0.72531 -1.30539,1.1905 -2.11523,1.61133 l 13.85156,-5.4043 c 0.69181,-0.55272 1.34164,-1.14977 2.05469,-1.67578 1.96467,-1.48587 4.13226,-2.67878 6.05078,-4.23242 3.33736,-2.53699 6.76783,-4.9553 9.96484,-7.67383 3.99565,-3.36 7.71256,-7.03229 11.08594,-11.02148 2.12368,-2.64408 4.39536,-5.55868 4.88477,-9.00586 0.1083,-2.24245 -0.34863,-4.3553 -1.19336,-6.40039 A 152,44.999998 0 0 1 377,177.51953 a 152,44.999998 0 0 1 5.93359,0.0879 c -0.30861,-0.49347 -0.62672,-0.98226 -0.95312,-1.46484 -0.3264,-0.48258 -0.66096,-0.9584 -1.00586,-1.42969 -0.6898,-0.94259 -1.41744,-1.86277 -2.18555,-2.75781 -1.89552,-2.27245 -3.73317,-4.59834 -5.5957,-6.90235 -3.1599,0.0294 -6.31755,0.0756 -9.4668,0.16211 a 12.50125,12.50125 0 0 0 -0.01,0.002 c -2.59711,0.0734 -5.18713,0.16532 -7.76953,0.27734 -2.5418,0.0953 -5.07551,0.20944 -7.59961,0.3418 a 12.50125,12.50125 0 0 0 -0.0781,0.004 c -2.54543,0.14952 -5.07868,0.31877 -7.59765,0.50586 -0.0151,10e-4 -0.0299,0.003 -0.0449,0.004 -0.0125,9.1e-4 -0.025,0.001 -0.0371,0.002 -2.4658,0.16751 -4.91801,0.35169 -7.35546,0.55469 a 12.50125,12.50125 0 0 0 -0.084,0.008 c -2.48879,0.22424 -4.9593,0.46743 -7.41016,0.72852 -0.95654,0.0955 -1.89544,0.20578 -2.8457,0.30664 -0.39205,-0.48858 -0.79272,-0.97183 -1.20312,-1.44922 -4.76119,-5.58805 -9.07731,-11.57354 -14.40625,-16.65625 -4.05672,-4.12616 -8.30633,-8.11229 -11.89454,-12.66016 -1.96356,-2.50836 -4.59881,-4.82328 -4.73828,-8.21093 -0.0852,-2.82198 0.55812,-5.60072 1.69727,-8.17969 2.34059,-4.50072 5.69599,-8.35307 9.14258,-12.04492 4.84713,-5.04311 10.03127,-9.704001 15.40625,-14.177738 l -13.70899,5.572268 c -0.6051,0.57627 -1.19002,1.17541 -1.8164,1.72851 -5.16182,4.55816 0.27848,-0.56493 -5.22852,4.48438 -2.76922,2.53906 -5.39367,5.21629 -7.9707,7.94726 -3.53605,3.81401 -7.02183,7.7911 -9.18945,12.55665 -1.10903,2.84336 -1.73213,5.86165 -1.49024,8.9121 0.297,3.67498 3.12878,6.22411 5.32813,8.92188 3.63401,4.60479 8.00541,8.56155 12.1582,12.6875 4.14865,3.86576 7.64745,8.31512 11.18359,12.72852 -0.61541,0.0905 -1.2437,0.17273 -1.85547,0.26562 a 12.50125,12.50125 0 0 0 -0.0976,0.0137 c -2.34774,0.37542 -4.66295,0.77024 -6.94922,1.18164 -2.19283,0.37705 -4.35736,0.76862 -6.49219,1.17774 a 12.50125,12.50125 0 0 0 -0.10156,0.0215 c -2.18388,0.43748 -4.33199,0.89224 -6.44727,1.36328 -0.0178,0.004 -0.0348,0.008 -0.0527,0.0117 -0.0178,0.004 -0.0367,0.008 -0.0547,0.0117 -2.08137,0.44589 -4.13243,0.90552 -6.14648,1.38281 a 12.50125,12.50125 0 0 0 -0.11719,0.0293 c -1.99331,0.49265 -3.9471,0.99973 -5.86719,1.52344 -0.0261,0.007 -0.0502,0.0147 -0.0762,0.0215 -0.0151,0.004 -0.0318,0.008 -0.0469,0.0117 -1.95918,0.51507 -3.88266,1.0455 -5.76563,1.5918 a 12.50125,12.50125 0 0 0 -0.13477,0.041 c -1.86424,0.56345 -3.68631,1.14334 -5.46875,1.73828 -0.008,0.003 -0.0171,0.005 -0.0254,0.008 -1.78481,0.57323 -3.53421,1.15986 -5.23828,1.76367 a 12.50125,12.50125 0 0 0 -0.16211,0.0605 c -1.71557,0.63498 -3.38687,1.28697 -5.01367,1.95508 -0.0129,0.005 -0.0265,0.0107 -0.0391,0.0156 -1.57075,0.61946 -3.10529,1.25264 -4.5957,1.90234 a 12.50125,12.50125 0 0 0 -0.19727,0.0879 c -1.51806,0.69321 -2.98947,1.40394 -4.41797,2.13282 -1.42915,0.6993 -2.81715,1.41517 -4.16016,2.15039 a 12.50125,12.50125 0 0 0 -0.23437,0.13085 c -1.31344,0.75614 -2.5776,1.53548 -3.80273,2.33399 -1.23659,0.76966 -2.43732,1.5567 -3.5879,2.37109 a 12.50125,12.50125 0 0 0 -0.29101,0.21289 c -1.11268,0.83692 -2.17551,1.7025 -3.19922,2.59571 -1.04254,0.86431 -2.04726,1.75352 -3,2.67968 a 12.50125,12.50125 0 0 0 -0.33398,0.3379 c -0.8979,0.9419 -1.73784,1.92744 -2.53711,2.94531 -0.82988,0.99401 -1.62044,2.01631 -2.3418,3.09375 a 12.50125,12.50125 0 0 0 -0.34375,0.54297 c -0.65337,1.09356 -1.22529,2.24549 -1.74414,3.42578 -0.55504,1.15354 -1.06116,2.33742 -1.46289,3.57226 a 12.50125,12.50125 0 0 0 -0.0391,0.12305 c -0.73133,2.32922 -1.15779,4.79259 -1.21875,7.27539 a 12.50125,12.50125 0 0 0 -0.004,0.31055 c 3.4e-4,1.08312 0.24771,2.13602 0.38281,3.20703 v 279.60156 a 12.50125,12.50125 0 0 0 0.0156,0.29883 c -0.10666,0.76331 -0.34454,1.49688 -0.38282,2.26953 a 12.50125,12.50125 0 0 0 -0.0156,0.61914 c 0,11.91787 7.83306,21.14535 17.27734,27.75586 9.44429,6.61051 21.61034,11.73151 36.19336,16.04883 29.16605,8.63467 68.05567,13.69531 111.0293,13.69531 a 12.50125,12.50125 0 0 0 0.004,0 c 40.8085,-0.0113 78.12389,-4.6146 106.82812,-12.53906 14.35211,-3.96227 26.55698,-8.7032 36.29883,-14.64258 8.90003,-5.42612 16.40175,-12.07974 19.63476,-21.50195 a 12.50125,12.50125 0 0 0 1.35157,-5.62696 v -0.13281 c 0.10998,-0.67219 0.28277,-1.33031 0.33984,-2.01172 a 12.50125,12.50125 0 0 0 0.043,-1.04883 c -3.4e-4,-1.0831 -0.24758,-2.13602 -0.38281,-3.20703 V 225.70898 a 12.50125,12.50125 0 0 0 -0.0156,-0.30078 c 0.10696,-0.76591 0.34468,-1.50207 0.38282,-2.27734 a 12.50125,12.50125 0 0 0 0.0117,-0.91797 c -0.0608,-2.4828 -0.48741,-4.94617 -1.21875,-7.27539 a 12.50125,12.50125 0 0 0 -0.0391,-0.12305 c -0.40172,-1.23484 -0.90787,-2.41872 -1.46289,-3.57226 -0.51885,-1.18029 -1.09077,-2.33222 -1.74414,-3.42578 a 12.50125,12.50125 0 0 0 -0.34375,-0.54297 c -0.72136,-1.07744 -1.51189,-2.09974 -2.3418,-3.09375 -0.79925,-1.01787 -1.6392,-2.00341 -2.53711,-2.94531 a 12.50125,12.50125 0 0 0 -0.33398,-0.3379 c -0.95274,-0.92616 -1.95746,-1.81537 -3,-2.67968 -1.02369,-0.89321 -2.08653,-1.75879 -3.19922,-2.59571 a 12.50125,12.50125 0 0 0 -0.29101,-0.21289 c -1.15843,-0.81992 -2.36579,-1.61406 -3.61133,-2.38867 -1.21591,-0.79191 -2.47064,-1.56229 -3.77344,-2.3125 a 12.50125,12.50125 0 0 0 -0.24023,-0.13476 c -1.35599,-0.74174 -2.75943,-1.46274 -4.20313,-2.16797 -1.40606,-0.71711 -2.8529,-1.41705 -4.3457,-2.09961 a 12.50125,12.50125 0 0 0 -0.19336,-0.0879 c -1.54288,-0.67393 -3.13256,-1.32924 -4.76172,-1.97071 -1.59821,-0.6549 -3.23626,-1.29496 -4.91992,-1.91797 a 12.50125,12.50125 0 0 0 -0.16407,-0.0605 c -1.6995,-0.60214 -3.44283,-1.18803 -5.22265,-1.75977 l -0.0606,-0.0195 c -1.77944,-0.59384 -3.59802,-1.17193 -5.45898,-1.73437 a 12.50125,12.50125 0 0 0 -0.13672,-0.041 c -1.8717,-0.54265 -3.78352,-1.07022 -5.73047,-1.58203 l -0.0469,-0.0117 c -1.95205,-0.53313 -3.94092,-1.04978 -5.96875,-1.55078 a 12.50125,12.50125 0 0 0 -0.11523,-0.0273 c -2.02174,-0.47927 -4.07838,-0.94302 -6.16797,-1.39063 -1.38153,-0.30807 -2.80195,-0.59696 -4.21289,-0.89062 -1.47274,-2.36671 -3.12033,-4.62103 -4.95898,-6.75977 -4.76119,-5.58805 -9.07731,-11.57354 -14.40625,-16.65625 -4.05672,-4.12616 -8.30633,-8.11229 -11.89454,-12.66016 -1.96356,-2.50836 -4.59881,-4.82328 -4.73828,-8.21093 -0.0852,-2.82198 0.55812,-5.60072 1.69727,-8.17969 2.34059,-4.50072 5.69599,-8.35307 9.14258,-12.04492 4.84713,-5.04311 10.03127,-9.704001 15.40625,-14.177738 l -13.70899,5.572268 c -0.6051,0.57627 -1.19002,1.17541 -1.8164,1.72851 -5.16182,4.55816 0.27848,-0.56493 -5.22852,4.48438 -2.76922,2.53906 -5.39367,5.21629 -7.9707,7.94726 -3.53605,3.81401 -7.02183,7.7911 -9.18945,12.55665 -1.10903,2.84336 -1.73213,5.86165 -1.49024,8.9121 0.297,3.67498 3.13073,6.22411 5.33008,8.92188 3.63401,4.60479 8.00346,8.56155 12.15625,12.6875 4.01247,3.73887 7.41373,8.02655 10.83203,12.29687 -0.7095,-0.099 -1.40515,-0.20692 -2.11914,-0.30273 -2.32751,-0.32878 -4.67948,-0.64167 -7.05469,-0.93555 a 12.50125,12.50125 0 0 0 -0.0898,-0.01 c -2.40953,-0.28059 -4.83891,-0.54259 -7.28906,-0.78711 -2.45088,-0.26109 -4.92138,-0.50428 -7.41016,-0.72852 a 12.50125,12.50125 0 0 0 -0.084,-0.008 c -2.44974,-0.20402 -4.91422,-0.38847 -7.39257,-0.55664 -2.53376,-0.18841 -5.08206,-0.35935 -7.64258,-0.50977 a 12.50125,12.50125 0 0 0 -0.0781,-0.004 c -2.52412,-0.1324 -5.05784,-0.24648 -7.59961,-0.3418 -2.06761,-0.0897 -4.14359,-0.15792 -6.2207,-0.22266 -0.21327,-0.25729 -0.42215,-0.51735 -0.64062,-0.77148 -4.76119,-5.58805 -9.07731,-11.57354 -14.40625,-16.65625 -4.05672,-4.12616 -8.30633,-8.11229 -11.89454,-12.66016 -1.96356,-2.50836 -4.59881,-4.82328 -4.73828,-8.21093 -0.0852,-2.82198 0.55812,-5.60072 1.69727,-8.17969 2.34059,-4.50072 5.69599,-8.35307 9.14258,-12.04492 4.84713,-5.04311 10.03127,-9.704001 15.40625,-14.177738 z m 7.47461,75.318358 c 0.0389,0.0531 0.0766,0.10698 0.11523,0.16016 -0.0387,-0.0533 -0.0764,-0.10703 -0.11523,-0.16016 z m -69.22852,2.375 c 0.0802,0.11163 0.16283,0.22181 0.24219,0.33399 -0.0794,-0.11226 -0.1619,-0.22229 -0.24219,-0.33399 z m 71.14453,0.41797 c 0.0546,0.0851 0.10606,0.1724 0.16016,0.25781 -0.054,-0.0855 -0.10566,-0.17263 -0.16016,-0.25781 z m 0.88867,1.4375 c 0.10482,0.1753 0.20573,0.35274 0.3086,0.5293 -0.10266,-0.17652 -0.204,-0.35403 -0.3086,-0.5293 z m -70.24414,0.79492 c 0.0818,0.12929 0.16341,0.25868 0.24414,0.38867 -0.0807,-0.12992 -0.16236,-0.25944 -0.24414,-0.38867 z m 71.06055,0.61719 c 0.17486,0.31357 0.34286,0.63173 0.51172,0.94922 -0.16874,-0.31767 -0.33703,-0.63545 -0.51172,-0.94922 z m -88.20508,0.42383 c 0.46593,0.54293 0.91262,1.09773 1.34961,1.6582 -0.43666,-0.56067 -0.8837,-1.1153 -1.34961,-1.6582 z m 89.04883,1.14844 c 0.26609,0.51638 0.52493,1.03772 0.77539,1.56445 -0.25045,-0.52672 -0.5095,-1.04795 -0.77539,-1.56445 z m 50.99609,0.11914 c 0.1353,0.1697 0.2658,0.34235 0.39844,0.51367 -0.13268,-0.1715 -0.26309,-0.3438 -0.39844,-0.51367 z m -121.24804,0.47851 c 0.0682,0.12355 0.13387,0.2489 0.20117,0.37305 -0.0673,-0.1242 -0.13293,-0.24945 -0.20117,-0.37305 z m 139.07422,0.13867 c 0.0371,0.0673 0.0726,0.13564 0.10937,0.20313 -0.0367,-0.0676 -0.0724,-0.13573 -0.10937,-0.20313 z m -156.19532,0.20118 c 0.34537,0.45381 0.68037,0.91418 1.00782,1.3789 -0.32715,-0.46504 -0.66269,-0.92483 -1.00782,-1.3789 z m 139.29493,0.38671 c 0.52486,0.70494 1.02683,1.42377 1.50976,2.1543 -0.48245,-0.73086 -0.98529,-1.44912 -1.50976,-2.1543 z m -138.02735,1.36133 c 0.83886,1.21508 1.62038,2.46522 2.3457,3.75 -0.72528,-1.28471 -1.50779,-2.53431 -2.3457,-3.75 z"
        style="color:#000000;font-style:normal;font-variant:normal;font-weight:normal;font-stretch:normal;font-size:medium;line-height:normal;font-family:sans-serif;font-variant-ligatures:normal;font-variant-position:normal;font-variant-caps:normal;font-variant-numeric:normal;font-variant-alternates:normal;font-feature-settings:normal;text-indent:0;text-align:start;text-decoration:none;text-decoration-line:none;text-decoration-style:solid;text-decoration-color:#000000;letter-spacing:normal;word-spacing:normal;text-transform:none;writing-mode:lr-tb;direction:ltr;text-orientation:mixed;dominant-baseline:auto;baseline-shift:baseline;text-anchor:start;white-space:normal;shape-padding:0;clip-rule:nonzero;display:inline;overflow:visible;visibility:visible;opacity:1;isolation:auto;mix-blend-mode:normal;color-interpolation:sRGB;color-interpolation-filters:linearRGB;solid-color:#000000;solid-opacity:1;vector-effect:none;fill:#000000;fill-opacity:1;fill-rule:nonzero;stroke:none;stroke-width:24.99999809;stroke-linecap:round;stroke-linejoin:round;stroke-miterlimit:4;stroke-dasharray:none;stroke-dashoffset:0;stroke-opacity:1;color-rendering:auto;image-rendering:auto;shape-rendering:auto;text-rendering:auto;enable-background:accumulate" />
   </g>
 </symbol>

 <symbol
    xmlns:dc="http://purl.org/dc/elements/1.1/"
    xmlns:cc="http://creativecommons.org/ns#"
    xmlns:rdf="http://www.w3.org/1999/02/22-rdf-syntax-ns#"
    xmlns:svg="http://www.w3.org/2000/svg"
    xmlns="http://www.w3.org/2000/svg"
    id="sleep"
    viewBox="0 0 81.490501 56.356499"
    version="1.1"
    >
   <defs
      id="defs4531" />
   <metadata
      id="metadata4521">
     <rdf:RDF>
       <cc:Work
          rdf:about="">
         <dc:format>image/svg+xml</dc:format>
         <dc:type
            rdf:resource="http://purl.org/dc/dcmitype/StillImage" />
         <dc:title></dc:title>
       </cc:Work>
     </rdf:RDF>
   </metadata>
   <g
      id="g4525"
      transform="translate(-64.82035,-89.3011)">
     <path
        id="path4523"
        d="m 106.36,89.302 a 24.871,20.637 0 0 0 -24.806,19.554 20.108,16.801 0 0 0 -16.734,16.561 20.108,16.801 0 0 0 20.108,16.801 20.108,16.801 0 0 0 12.025,-3.3564 26.723,19.447 0 0 0 20.254,6.796 26.723,19.447 0 0 0 26.723,-19.447 26.723,19.447 0 0 0 -1.3467,-6.0193 22.093,13.229 0 0 0 3.7279,-7.3422 22.093,13.229 0 0 0 -18.304,-13.02 24.871,20.637 0 0 0 -21.648,-10.528 z m 2.0206,19.058 h 5.7878 l -5.1418,7.3556 h 3.2127 c 0.2469,0 0.46221,-0.0232 0.64595,-0.0692 0.18374,-0.0459 0.34738,-0.12903 0.49093,-0.2496 0.14354,-0.12058 0.2697,-0.28726 0.37879,-0.49971 0.1091,-0.21244 0.21548,-0.48502 0.31884,-0.81804 l 0.18914,0.0346 -0.37001,2.0753 h -6.3738 v -0.21497 l 5.0214,-7.1401 h -2.4975 c -0.31579,0 -0.56863,0.0258 -0.75809,0.0775 -0.1895,0.0459 -0.33895,0.12649 -0.44804,0.24133 -0.1091,0.11484 -0.19218,0.26987 -0.2496,0.46509 -0.0517,0.18948 -0.1003,0.42455 -0.14624,0.7059 h -0.22428 z m -8.2021,4.2333 h 5.7878 l -5.1418,7.3556 h 3.2127 c 0.2469,0 0.46222,-0.0233 0.64596,-0.0693 0.18374,-0.0459 0.34738,-0.12902 0.49092,-0.2496 0.14354,-0.12057 0.2697,-0.28726 0.37879,-0.49971 0.1091,-0.21244 0.21548,-0.48501 0.31885,-0.81803 l 0.18913,0.0346 -0.37,2.0753 h -6.3738 v -0.21497 l 5.0214,-7.1401 h -2.4975 c -0.31579,0 -0.56861,0.0258 -0.75809,0.0775 -0.18948,0.0459 -0.33894,0.12649 -0.44803,0.24133 -0.1091,0.11484 -0.19218,0.26987 -0.2496,0.46509 -0.0517,0.18948 -0.1003,0.42455 -0.14625,0.7059 h -0.22427 z m -7.1437,5.0271 h 5.7878 l -5.1418,7.3556 h 3.2127 c 0.2469,0 0.46222,-0.0233 0.64596,-0.0692 0.18374,-0.0459 0.34738,-0.12902 0.49093,-0.2496 0.14354,-0.12058 0.26969,-0.28727 0.37879,-0.49971 0.1091,-0.21245 0.21549,-0.48502 0.31884,-0.81804 l 0.18914,0.0346 -0.37,2.0753 h -6.3738 v -0.21498 l 5.0214,-7.1401 h -2.4975 c -0.3158,0 -0.56861,0.0258 -0.75809,0.0775 -0.18948,0.0459 -0.33894,0.12649 -0.44804,0.24132 -0.1091,0.11484 -0.19218,0.26987 -0.2496,0.46509 -0.05168,0.18948 -0.10031,0.42455 -0.14625,0.7059 h -0.22427 z" />
   </g>
 </symbol>


 <symbol
    xmlns:dc="http://purl.org/dc/elements/1.1/"
    xmlns:cc="http://creativecommons.org/ns#"
    xmlns:rdf="http://www.w3.org/1999/02/22-rdf-syntax-ns#"
    xmlns:svg="http://www.w3.org/2000/svg"
    xmlns="http://www.w3.org/2000/svg"
    id="calendar"
    version="1.1"
    viewBox="0 0 88.370834 100.27708"
   >
   <defs
      id="defs2" />
   <metadata
      id="metadata5">
     <rdf:RDF>
       <cc:Work
          rdf:about="">
         <dc:format>image/svg+xml</dc:format>
         <dc:type
            rdf:resource="http://purl.org/dc/dcmitype/StillImage" />
         <dc:title></dc:title>
       </cc:Work>
     </rdf:RDF>
   </metadata>
   <g
      transform="translate(-27.252083,-86.920791)"
      id="layer1">
     <path
        id="rect5513"
        transform="scale(0.26458333)"
        d="m 150.55859,328.51953 c -4.18772,0 -7.55859,5.70103 -7.55859,12.7832 v 76.4336 c 0,7.08217 3.37087,12.7832 7.55859,12.7832 h -10 c -4.18772,0 -7.55859,-5.05631 -7.55859,-11.33789 v -45.66211 h -22.44141 c -4.18772,0 -7.55859,5.05631 -7.55859,11.33789 v 92.32422 219 c 0,6.28158 3.37087,11.33789 7.55859,11.33789 h 318.88282 c 4.18772,0 7.55859,-5.05631 7.55859,-11.33789 v -219 -92.32422 c 0,-6.28158 -3.37087,-11.33789 -7.55859,-11.33789 H 409 v 45.66211 c 0,6.28158 -3.37087,11.33789 -7.55859,11.33789 h -12 c 4.18772,0 7.55859,-5.70103 7.55859,-12.7832 v -76.4336 c 0,-7.08217 -3.37087,-12.7832 -7.55859,-12.7832 h -14.88282 c -4.18772,0 -7.55859,5.70103 -7.55859,12.7832 v 76.4336 c 0,7.08217 3.37087,12.7832 7.55859,12.7832 h -9 C 361.37087,430.51953 358,425.46322 358,419.18164 V 373.51953 H 184 v 45.66211 c 0,6.28158 -3.37087,11.33789 -7.55859,11.33789 h -11 c 4.18772,0 7.55859,-5.70103 7.55859,-12.7832 v -76.4336 c 0,-7.08217 -3.37087,-12.7832 -7.55859,-12.7832 z m -35.55859,160 h 309.34961 v 191.49805 c 0,5.81798 -3.12329,10.50195 -7.00195,10.50195 H 122 c -3.87865,0 -7,-4.68397 -7,-10.50195 z"
        style="opacity:1;fill:#000000;stroke:#ff6600;stroke-width:0;stroke-linecap:round;stroke-linejoin:round;stroke-miterlimit:4;stroke-dasharray:none" />
   </g>
 </symbol>


 <symbol
    xmlns:dc="http://purl.org/dc/elements/1.1/"
    xmlns:cc="http://creativecommons.org/ns#"
    xmlns:rdf="http://www.w3.org/1999/02/22-rdf-syntax-ns#"
    xmlns:svg="http://www.w3.org/2000/svg"
    xmlns="http://www.w3.org/2000/svg"
    viewBox="0 0 48.681785 93.132366"
    version="1.1"

    id="speaker">
   <defs
      id="defs4546" />
   <title
      id="title16">speaker</title>
   <metadata
      id="metadata5">
     <rdf:RDF>
       <cc:Work
          rdf:about="">
         <dc:format>image/svg+xml</dc:format>
         <dc:type
            rdf:resource="http://purl.org/dc/dcmitype/StillImage" />
         <dc:title>speaker</dc:title>
       </cc:Work>
     </rdf:RDF>
   </metadata>
   <g
      transform="translate(-22.225453,-64.430522)"
      id="layer1">
     <path
        d="m 268,243.52 -90,89 v 11.338 c 0,-1.9337 -0.48353,-3.7501 -1.3301,-5.3398 a 5.5,86 0 0 1 3.3301,79.002 5.5,86 0 0 1 -4.1562,83.311 C 177.1951,498.9645 178,496.6737 178,494.1828 v 11.338 l 90,90 z m -172.66,89 c -6.2816,0 -11.338,5.0563 -11.338,11.338 v 150.32 c 0,6.2816 5.0563,11.338 11.338,11.338 h 71.324 c 2.7492,0 5.264,-0.96812 7.2227,-2.584 a 5.5,86 0 0 1 -4.8848,-85.416 5.5,86 0 0 1 4.0742,-83.021 c -1.8218,-1.2475 -4.0278,-1.9785 -6.4121,-1.9785 z"
        transform="scale(0.26458)"
        id="rect837" />
   </g>
 </symbol>

</svg>
